{"title":"Tower Of London 1939.avi","uid":9403769,"size":734532174,"categoryP":"video","categoryS":"movies","magnet":"?xt=urn:btih:747d601cfc57d4ae6e95b60090302bb63aa830dc&amp;dn=Tower+Of+London+1939.avi&amp;tr=udp%3A%2F%2Ftracker.openbittorrent.com%3A80&amp;tr=udp%3A%2F%2Fopen.demonii.com%3A1337&amp;tr=udp%3A%2F%2Ftracker.coppersurfer.tk%3A6969&amp;tr=udp%3A%2F%2Fexodus.desync.com%3A6969","seeders":0,"leechers":5,"uploader":"crumrugin","files":1,"time":1388114626,"description":"Tower of London 1939 DVDRip\nGeneral\nComplete name                            : Tower Of London (1939).avi\nFormat                                   : AVI\nFormat/Info                              : Audio Video Interleave\nFormat profile                           : OpenDML\nFormat settings                          : rec\nFile size                                : 701 MiB\nDuration                                 : 1h 28mn\nOverall bit rate mode                    : Variable\nOverall bit rate                         : 1 102 Kbps\nWriting application                      : AVI-Mux GUI 1.17.8.3, Feb 16 201019:42:50\n\nVideo\nID                                       : 0\nFormat                                   : MPEG-4 Visual\nFormat profile                           : Advanced Simple@L5\nFormat settings, BVOP                    : 2\nFormat settings, QPel                    : No\nFormat settings, GMC                     : No warppoints\nFormat settings, Matrix                  : Default (H.263)\nMuxing mode                              : Packed bitstream\nCodec ID                                 : XVID\nCodec ID/Hint                            : XviD\nDuration                                 : 1h 28mn\nBit rate                                 : 1 018 Kbps\nWidth                                    : 576 pixels\nHeight                                   : 416 pixels\nDisplay aspect ratio                     : 1.385\nFrame rate                               : 25.000 fps\nColor space                              : YUV\nChroma subsampling                       : 4:2:0\nBit depth                                : 8 bits\nScan type                                : Progressive\nCompression mode                         : Lossy\nBits/(Pixel*Frame)                       : 0.170\nStream size                              : 647 MiB (92%)\nWriting library                          : XviD 1.2.1 (UTC 2008-12-04)\n\nAudio\nID                                       : 1\nFormat                                   : MPEG Audio\nFormat version                           : Version 1\nFormat profile                           : Layer 3\nCodec ID                                 : 55\nCodec ID/Hint                            : MP3\nDuration                                 : 1h 28mn\nBit rate mode                            : Variable\nBit rate                                 : 74.7 Kbps\nNominal bit rate                         : 96.0 Kbps\nChannel(s)                               : 1 channel\nSampling rate                            : 48.0 KHz\nCompression mode                         : Lossy\nStream size                              : 47.5 MiB (7%)\nAlignment                                : Aligned on interleaves\nInterleave, duration                     : 24 ms (0.60 video frame)\nInterleave, preload duration             : 198 ms\nTitle                                    : VTS_02_1 T80 2_0ch 256Kbps DELAY 0ms\nWriting library                          : LAME3.98r\nEncoding settings                        : -m m -V 4 -q 2 -lowpass 20.5 --abr 96 &lt;a href=&quot;\nhttp://ultraimg.com/images/xgNpo.jpg&quot; rel=&quot;nofollow&quot; target=&quot;_NEW&quot;&gt;\nhttp://ultraimg.com/images/xgNpo.jpg&lt;/a&gt;","torrent":{"xt":"urn:btih:747d601cfc57d4ae6e95b60090302bb63aa830dc","amp;dn":"Tower+Of+London+1939.avi","amp;tr":["udp%3A%2F%2Ftracker.openbittorrent.com%3A80","udp%3A%2F%2Fopen.demonii.com%3A1337","udp%3A%2F%2Ftracker.coppersurfer.tk%3A6969","udp%3A%2F%2Fexodus.desync.com%3A6969"],"infoHash":"747d601cfc57d4ae6e95b60090302bb63aa830dc","infoHashBuffer":{"type":"Buffer","data":[116,125,96,28,252,87,212,174,110,149,182,0,144,48,43,182,58,168,48,220]},"announce":[],"urlList":[]}}